<svg xmlns="http://www.w3.org/2000/svg" width="512" height="512" viewBox="0 0 512 512" role="img" aria-label="Chess Analysis">
  <defs>
    <linearGradient id="bg" x1="54" y1="34" x2="458" y2="484" gradientUnits="userSpaceOnUse">
      <stop offset="0" stop-color="#17352e"/>
      <stop offset="0.52" stop-color="#091210"/>
      <stop offset="1" stop-color="#24301b"/>
    </linearGradient>
    <linearGradient id="piece" x1="188" y1="108" x2="329" y2="426" gradientUnits="userSpaceOnUse">
      <stop offset="0" stop-color="#fff9d7"/>
      <stop offset="0.56" stop-color="#d9efbd"/>
      <stop offset="1" stop-color="#8fd6bd"/>
    </linearGradient>
    <linearGradient id="accent" x1="332" y1="168" x2="432" y2="260" gradientUnits="userSpaceOnUse">
      <stop offset="0" stop-color="#f6d56f"/>
      <stop offset="1" stop-color="#54c9ab"/>
    </linearGradient>
    <filter id="shadow" x="-20%" y="-20%" width="140%" height="140%">
      <feDropShadow dx="0" dy="18" stdDeviation="16" flood-color="#010504" flood-opacity="0.48"/>
    </filter>
  </defs>

  <rect x="20" y="20" width="472" height="472" rx="108" fill="url(#bg)"/>
  <rect x="20" y="20" width="472" height="472" rx="108" fill="none" stroke="#31564c" stroke-width="8"/>

  <g opacity="0.18" fill="#e0f1de">
    <path d="M74 86h91v91H74zM256 86h91v91h-91zM165 177h91v91h-91zM347 177h91v91h-91zM74 268h91v91H74zM256 268h91v91h-91zM165 359h91v91h-91zM347 359h91v91h-91z"/>
  </g>

  <path d="M340 217l28 28 55-68" fill="none" stroke="url(#accent)" stroke-width="24" stroke-linecap="round" stroke-linejoin="round"/>
  <path d="M328 296h102" fill="none" stroke="#54c9ab" stroke-width="16" stroke-linecap="round" opacity="0.86"/>
  <path d="M360 332h70" fill="none" stroke="#f6d56f" stroke-width="16" stroke-linecap="round" opacity="0.9"/>

  <g filter="url(#shadow)" fill="url(#piece)">
    <circle cx="242" cy="145" r="55"/>
    <path d="M205 212h74l18 103H187l18-103z"/>
    <path d="M172 352c0-29 24-53 53-53h34c29 0 53 24 53 53v22H172v-22z"/>
    <path d="M129 390h226l18 48H111l18-48z"/>
  </g>
</svg>
