<svg xmlns="http://www.w3.org/2000/svg" width="512" height="512" viewBox="0 0 512 512" role="img" aria-label="Chess Analysis">
  <defs>
    <filter id="soft-shadow" x="-20%" y="-20%" width="140%" height="150%">
      <feDropShadow dx="0" dy="14" stdDeviation="14" flood-color="#06110f" flood-opacity="0.42"/>
    </filter>
  </defs>
  <g filter="url(#soft-shadow)">
    <path
      fill="#f2f6ec"
      stroke="#0c1916"
      stroke-linejoin="round"
      stroke-width="12"
      d="M144 297 110 151c-2-10 5-19 15-19 5 0 10 3 13 7l65 88 45-91a34 34 0 1 1 16 0l45 91 65-88c3-4 8-7 13-7 10 0 17 9 15 19l-34 146H144Z"
    />
    <rect x="134" y="330" width="244" height="28" rx="14" fill="#698477"/>
    <rect x="134" y="383" width="157" height="25" rx="12.5" fill="#698477"/>
  </g>
</svg>
