<svg xmlns="http://www.w3.org/2000/svg" width="512" height="512" viewBox="0 0 100 100">
  <rect x="1" y="1" width="98" height="98" rx="22" ry="22" fill="#2d5a27"></rect>
  
  <rect x="0" y="0" width="25" height="25" fill="#d4e8d0" opacity="0.10"></rect><rect x="50" y="0" width="25" height="25" fill="#d4e8d0" opacity="0.10"></rect><rect x="25" y="25" width="25" height="25" fill="#d4e8d0" opacity="0.10"></rect><rect x="75" y="25" width="25" height="25" fill="#d4e8d0" opacity="0.10"></rect><rect x="0" y="50" width="25" height="25" fill="#d4e8d0" opacity="0.10"></rect><rect x="50" y="50" width="25" height="25" fill="#d4e8d0" opacity="0.10"></rect><rect x="25" y="75" width="25" height="25" fill="#d4e8d0" opacity="0.10"></rect><rect x="75" y="75" width="25" height="25" fill="#d4e8d0" opacity="0.10"></rect>
  <g transform="translate(0 4)">
    <g fill="#d4e8d0">
      <path d="M 30 6 L 30 18 L 38 18 L 38 12 L 46 12 L 46 18 L 54 18 L 54 12 L 62 12 L 62 18 L 70 18 L 70 6 L 80 6 L 80 26 L 72 30 L 72 36 L 68 38 C 64 44 64 56 68 62 L 72 64 C 72 72 76 80 82 86 L 86 92 L 14 92 L 18 86 C 24 80 28 72 28 64 L 32 62 C 36 56 36 44 32 38 L 28 36 L 28 30 L 20 26 L 20 6 Z"></path>
      <path d="M 32 38 C 36 44 36 56 32 62" fill="none" stroke="#0e1a0e" stroke-width="1.6" opacity="0.25" stroke-linecap="round"></path>
      <path d="M 68 38 C 64 44 64 56 68 62" fill="none" stroke="#0e1a0e" stroke-width="1.6" opacity="0.25" stroke-linecap="round"></path>
    </g>
  </g>
</svg>