<svg xmlns="http://www.w3.org/2000/svg" width="512" height="512" viewBox="0 0 512 512" role="img" aria-label="Chess Analysis">
  <defs>
    <linearGradient id="bg" x1="64" y1="28" x2="448" y2="484" gradientUnits="userSpaceOnUse">
      <stop offset="0" stop-color="#17231f"/>
      <stop offset="0.58" stop-color="#0d1513"/>
      <stop offset="1" stop-color="#1b2117"/>
    </linearGradient>
    <linearGradient id="piece" x1="198" y1="96" x2="318" y2="430" gradientUnits="userSpaceOnUse">
      <stop offset="0" stop-color="#f2f7df"/>
      <stop offset="1" stop-color="#a8d5a2"/>
    </linearGradient>
    <filter id="shadow" x="-20%" y="-20%" width="140%" height="140%">
      <feDropShadow dx="0" dy="18" stdDeviation="16" flood-color="#020706" flood-opacity="0.42"/>
    </filter>
  </defs>

  <rect x="20" y="20" width="472" height="472" rx="104" fill="url(#bg)"/>
  <rect x="20" y="20" width="472" height="472" rx="104" fill="none" stroke="#2d433a" stroke-width="8"/>

  <g opacity="0.14" fill="#d8ead8">
    <path d="M92 92h82v82H92zM256 92h82v82h-82zM174 174h82v82h-82zM338 174h82v82h-82zM92 256h82v82H92zM256 256h82v82h-82zM174 338h82v82h-82zM338 338h82v82h-82z"/>
  </g>

  <g filter="url(#shadow)" fill="url(#piece)">
    <circle cx="256" cy="150" r="58"/>
    <path d="M216 219h80l20 112H196l20-112z"/>
    <path d="M174 368c0-28 23-51 51-51h62c28 0 51 23 51 51v19H174v-19z"/>
    <path d="M142 386h228l19 50H123l19-50z"/>
  </g>
</svg>
